<?xml version="1.0" encoding="UTF-8" standalone="no"?>
<!DOCTYPE svg PUBLIC "-//W3C//DTD SVG 1.1//EN"
 "http://www.w3.org/Graphics/SVG/1.1/DTD/svg11.dtd">
<!-- Generated by graphviz version 2.36.0 (20140111.2315)
 -->
<!-- Title: controllers_diagram Pages: 1 -->
<svg width="648pt" height="651pt"
 viewBox="0.00 0.00 648.00 651.00" xmlns="http://www.w3.org/2000/svg" xmlns:xlink="http://www.w3.org/1999/xlink">
<g id="graph0" class="graph" transform="scale(1 1) rotate(0) translate(4 647)">
<title>controllers_diagram</title>
<polygon fill="none" stroke="none" points="-4,4 -4,-647 644,-647 644,4 -4,4"/>
<!-- _diagram_info -->
<g id="node1" class="node"><title>_diagram_info</title>
<text text-anchor="start" x="260" y="-99.6" font-family="Times,serif" font-size="13.00">Controllers diagram</text>
<text text-anchor="start" x="260" y="-85.6" font-family="Times,serif" font-size="13.00">Date: May 10 2016 &#45; 18:20</text>
<text text-anchor="start" x="260" y="-71.6" font-family="Times,serif" font-size="13.00">Migration version: 20160329082518</text>
<text text-anchor="start" x="260" y="-57.6" font-family="Times,serif" font-size="13.00">Generated by RailRoady 1.4.2</text>
<text text-anchor="start" x="260" y="-43.6" font-family="Times,serif" font-size="13.00">http://railroady.prestonlee.com</text>
</g>
<!-- ApplicationController -->
<g id="node2" class="node"><title>ApplicationController</title>
<path fill="none" stroke="black" d="M516,-0.5C516,-0.5 628,-0.5 628,-0.5 634,-0.5 640,-6.5 640,-12.5 640,-12.5 640,-97.5 640,-97.5 640,-103.5 634,-109.5 628,-109.5 628,-109.5 516,-109.5 516,-109.5 510,-109.5 504,-103.5 504,-97.5 504,-97.5 504,-12.5 504,-12.5 504,-6.5 510,-0.5 516,-0.5"/>
<text text-anchor="middle" x="572" y="-94.3" font-family="Times,serif" font-size="14.00">ApplicationController</text>
<polyline fill="none" stroke="black" points="504,-86.5 640,-86.5 "/>
<polyline fill="none" stroke="black" points="504,-62.5 640,-62.5 "/>
<polyline fill="none" stroke="black" points="504,-38.5 640,-38.5 "/>
<text text-anchor="start" x="512" y="-23.3" font-family="Times,serif" font-size="14.00">_layout</text>
<text text-anchor="start" x="512" y="-8.3" font-family="Times,serif" font-size="14.00">set_current_user</text>
</g>
<!-- GroupsController -->
<g id="node3" class="node"><title>GroupsController</title>
<path fill="none" stroke="black" d="M372,-144.5C372,-144.5 460,-144.5 460,-144.5 466,-144.5 472,-150.5 472,-156.5 472,-156.5 472,-345.5 472,-345.5 472,-351.5 466,-357.5 460,-357.5 460,-357.5 372,-357.5 372,-357.5 366,-357.5 360,-351.5 360,-345.5 360,-345.5 360,-156.5 360,-156.5 360,-150.5 366,-144.5 372,-144.5"/>
<text text-anchor="middle" x="416" y="-342.3" font-family="Times,serif" font-size="14.00">GroupsController</text>
<polyline fill="none" stroke="black" points="360,-334.5 472,-334.5 "/>
<text text-anchor="start" x="368" y="-319.3" font-family="Times,serif" font-size="14.00">create</text>
<text text-anchor="start" x="368" y="-304.3" font-family="Times,serif" font-size="14.00">destroy</text>
<text text-anchor="start" x="368" y="-289.3" font-family="Times,serif" font-size="14.00">edit</text>
<text text-anchor="start" x="368" y="-274.3" font-family="Times,serif" font-size="14.00">index</text>
<text text-anchor="start" x="368" y="-259.3" font-family="Times,serif" font-size="14.00">new</text>
<text text-anchor="start" x="368" y="-244.3" font-family="Times,serif" font-size="14.00">show</text>
<text text-anchor="start" x="368" y="-229.3" font-family="Times,serif" font-size="14.00">update</text>
<polyline fill="none" stroke="black" points="360,-221.5 472,-221.5 "/>
<polyline fill="none" stroke="black" points="360,-197.5 472,-197.5 "/>
<text text-anchor="start" x="368" y="-182.3" font-family="Times,serif" font-size="14.00">_layout</text>
<text text-anchor="start" x="368" y="-167.3" font-family="Times,serif" font-size="14.00">group_params</text>
<text text-anchor="start" x="368" y="-152.3" font-family="Times,serif" font-size="14.00">set_group</text>
</g>
<!-- SectionsController -->
<g id="node4" class="node"><title>SectionsController</title>
<path fill="none" stroke="black" d="M408,-396.5C408,-396.5 502,-396.5 502,-396.5 508,-396.5 514,-402.5 514,-408.5 514,-408.5 514,-597.5 514,-597.5 514,-603.5 508,-609.5 502,-609.5 502,-609.5 408,-609.5 408,-609.5 402,-609.5 396,-603.5 396,-597.5 396,-597.5 396,-408.5 396,-408.5 396,-402.5 402,-396.5 408,-396.5"/>
<text text-anchor="middle" x="455" y="-594.3" font-family="Times,serif" font-size="14.00">SectionsController</text>
<polyline fill="none" stroke="black" points="396,-586.5 514,-586.5 "/>
<text text-anchor="start" x="404" y="-571.3" font-family="Times,serif" font-size="14.00">create</text>
<text text-anchor="start" x="404" y="-556.3" font-family="Times,serif" font-size="14.00">destroy</text>
<text text-anchor="start" x="404" y="-541.3" font-family="Times,serif" font-size="14.00">edit</text>
<text text-anchor="start" x="404" y="-526.3" font-family="Times,serif" font-size="14.00">index</text>
<text text-anchor="start" x="404" y="-511.3" font-family="Times,serif" font-size="14.00">new</text>
<text text-anchor="start" x="404" y="-496.3" font-family="Times,serif" font-size="14.00">show</text>
<text text-anchor="start" x="404" y="-481.3" font-family="Times,serif" font-size="14.00">update</text>
<polyline fill="none" stroke="black" points="396,-473.5 514,-473.5 "/>
<polyline fill="none" stroke="black" points="396,-449.5 514,-449.5 "/>
<text text-anchor="start" x="404" y="-434.3" font-family="Times,serif" font-size="14.00">_layout</text>
<text text-anchor="start" x="404" y="-419.3" font-family="Times,serif" font-size="14.00">section_params</text>
<text text-anchor="start" x="404" y="-404.3" font-family="Times,serif" font-size="14.00">set_section</text>
</g>
<!-- AfilesController -->
<g id="node5" class="node"><title>AfilesController</title>
<path fill="none" stroke="black" d="M48,-162.5C48,-162.5 129,-162.5 129,-162.5 135,-162.5 141,-168.5 141,-174.5 141,-174.5 141,-363.5 141,-363.5 141,-369.5 135,-375.5 129,-375.5 129,-375.5 48,-375.5 48,-375.5 42,-375.5 36,-369.5 36,-363.5 36,-363.5 36,-174.5 36,-174.5 36,-168.5 42,-162.5 48,-162.5"/>
<text text-anchor="middle" x="88.5" y="-360.3" font-family="Times,serif" font-size="14.00">AfilesController</text>
<polyline fill="none" stroke="black" points="36,-352.5 141,-352.5 "/>
<text text-anchor="start" x="44" y="-337.3" font-family="Times,serif" font-size="14.00">create</text>
<text text-anchor="start" x="44" y="-322.3" font-family="Times,serif" font-size="14.00">destroy</text>
<text text-anchor="start" x="44" y="-307.3" font-family="Times,serif" font-size="14.00">edit</text>
<text text-anchor="start" x="44" y="-292.3" font-family="Times,serif" font-size="14.00">index</text>
<text text-anchor="start" x="44" y="-277.3" font-family="Times,serif" font-size="14.00">new</text>
<text text-anchor="start" x="44" y="-262.3" font-family="Times,serif" font-size="14.00">show</text>
<text text-anchor="start" x="44" y="-247.3" font-family="Times,serif" font-size="14.00">update</text>
<polyline fill="none" stroke="black" points="36,-239.5 141,-239.5 "/>
<polyline fill="none" stroke="black" points="36,-215.5 141,-215.5 "/>
<text text-anchor="start" x="44" y="-200.3" font-family="Times,serif" font-size="14.00">_layout</text>
<text text-anchor="start" x="44" y="-185.3" font-family="Times,serif" font-size="14.00">afile_params</text>
<text text-anchor="start" x="44" y="-170.3" font-family="Times,serif" font-size="14.00">set_afile</text>
</g>
<!-- DocumentsController -->
<g id="node6" class="node"><title>DocumentsController</title>
<path fill="none" stroke="black" d="M246,-396.5C246,-396.5 356,-396.5 356,-396.5 362,-396.5 368,-402.5 368,-408.5 368,-408.5 368,-582.5 368,-582.5 368,-588.5 362,-594.5 356,-594.5 356,-594.5 246,-594.5 246,-594.5 240,-594.5 234,-588.5 234,-582.5 234,-582.5 234,-408.5 234,-408.5 234,-402.5 240,-396.5 246,-396.5"/>
<text text-anchor="middle" x="301" y="-579.3" font-family="Times,serif" font-size="14.00">DocumentsController</text>
<polyline fill="none" stroke="black" points="234,-571.5 368,-571.5 "/>
<text text-anchor="start" x="242" y="-556.3" font-family="Times,serif" font-size="14.00">create</text>
<text text-anchor="start" x="242" y="-541.3" font-family="Times,serif" font-size="14.00">destroy</text>
<text text-anchor="start" x="242" y="-526.3" font-family="Times,serif" font-size="14.00">edit</text>
<text text-anchor="start" x="242" y="-511.3" font-family="Times,serif" font-size="14.00">index</text>
<text text-anchor="start" x="242" y="-496.3" font-family="Times,serif" font-size="14.00">new</text>
<text text-anchor="start" x="242" y="-481.3" font-family="Times,serif" font-size="14.00">show</text>
<text text-anchor="start" x="242" y="-466.3" font-family="Times,serif" font-size="14.00">update</text>
<polyline fill="none" stroke="black" points="234,-458.5 368,-458.5 "/>
<polyline fill="none" stroke="black" points="234,-434.5 368,-434.5 "/>
<text text-anchor="start" x="242" y="-419.3" font-family="Times,serif" font-size="14.00">_layout</text>
<text text-anchor="start" x="242" y="-404.3" font-family="Times,serif" font-size="14.00">set_document</text>
</g>
<!-- SessionsController -->
<g id="node7" class="node"><title>SessionsController</title>
<path fill="none" stroke="black" d="M12,-0.5C12,-0.5 107,-0.5 107,-0.5 113,-0.5 119,-6.5 119,-12.5 119,-12.5 119,-111.5 119,-111.5 119,-117.5 113,-123.5 107,-123.5 107,-123.5 12,-123.5 12,-123.5 6,-123.5 0,-117.5 0,-111.5 0,-111.5 0,-12.5 0,-12.5 0,-6.5 6,-0.5 12,-0.5"/>
<text text-anchor="middle" x="59.5" y="-108.3" font-family="Times,serif" font-size="14.00">SessionsController</text>
<polyline fill="none" stroke="black" points="0,-100.5 119,-100.5 "/>
<text text-anchor="start" x="8" y="-85.3" font-family="Times,serif" font-size="14.00">create</text>
<text text-anchor="start" x="8" y="-70.3" font-family="Times,serif" font-size="14.00">destroy</text>
<text text-anchor="start" x="8" y="-55.3" font-family="Times,serif" font-size="14.00">new</text>
<polyline fill="none" stroke="black" points="0,-47.5 119,-47.5 "/>
<polyline fill="none" stroke="black" points="0,-23.5 119,-23.5 "/>
<text text-anchor="start" x="8" y="-8.3" font-family="Times,serif" font-size="14.00">_layout</text>
</g>
<!-- UsersController -->
<g id="node8" class="node"><title>UsersController</title>
<path fill="none" stroke="black" d="M102,-414.5C102,-414.5 181,-414.5 181,-414.5 187,-414.5 193,-420.5 193,-426.5 193,-426.5 193,-630.5 193,-630.5 193,-636.5 187,-642.5 181,-642.5 181,-642.5 102,-642.5 102,-642.5 96,-642.5 90,-636.5 90,-630.5 90,-630.5 90,-426.5 90,-426.5 90,-420.5 96,-414.5 102,-414.5"/>
<text text-anchor="middle" x="141.5" y="-627.3" font-family="Times,serif" font-size="14.00">UsersController</text>
<polyline fill="none" stroke="black" points="90,-619.5 193,-619.5 "/>
<text text-anchor="start" x="98" y="-604.3" font-family="Times,serif" font-size="14.00">create</text>
<text text-anchor="start" x="98" y="-589.3" font-family="Times,serif" font-size="14.00">destroy</text>
<text text-anchor="start" x="98" y="-574.3" font-family="Times,serif" font-size="14.00">edit</text>
<text text-anchor="start" x="98" y="-559.3" font-family="Times,serif" font-size="14.00">index</text>
<text text-anchor="start" x="98" y="-544.3" font-family="Times,serif" font-size="14.00">new</text>
<text text-anchor="start" x="98" y="-529.3" font-family="Times,serif" font-size="14.00">show</text>
<text text-anchor="start" x="98" y="-514.3" font-family="Times,serif" font-size="14.00">update</text>
<polyline fill="none" stroke="black" points="90,-506.5 193,-506.5 "/>
<polyline fill="none" stroke="black" points="90,-482.5 193,-482.5 "/>
<text text-anchor="start" x="98" y="-467.3" font-family="Times,serif" font-size="14.00">_layout</text>
<text text-anchor="start" x="98" y="-452.3" font-family="Times,serif" font-size="14.00">check_edit</text>
<text text-anchor="start" x="98" y="-437.3" font-family="Times,serif" font-size="14.00">set_user</text>
<text text-anchor="start" x="98" y="-422.3" font-family="Times,serif" font-size="14.00">user_params</text>
</g>
<!-- PresentationsController -->
<g id="node9" class="node"><title>PresentationsController</title>
<path fill="none" stroke="black" d="M192,-144.5C192,-144.5 312,-144.5 312,-144.5 318,-144.5 324,-150.5 324,-156.5 324,-156.5 324,-345.5 324,-345.5 324,-351.5 318,-357.5 312,-357.5 312,-357.5 192,-357.5 192,-357.5 186,-357.5 180,-351.5 180,-345.5 180,-345.5 180,-156.5 180,-156.5 180,-150.5 186,-144.5 192,-144.5"/>
<text text-anchor="middle" x="252" y="-342.3" font-family="Times,serif" font-size="14.00">PresentationsController</text>
<polyline fill="none" stroke="black" points="180,-334.5 324,-334.5 "/>
<text text-anchor="start" x="188" y="-319.3" font-family="Times,serif" font-size="14.00">create</text>
<text text-anchor="start" x="188" y="-304.3" font-family="Times,serif" font-size="14.00">destroy</text>
<text text-anchor="start" x="188" y="-289.3" font-family="Times,serif" font-size="14.00">edit</text>
<text text-anchor="start" x="188" y="-274.3" font-family="Times,serif" font-size="14.00">index</text>
<text text-anchor="start" x="188" y="-259.3" font-family="Times,serif" font-size="14.00">new</text>
<text text-anchor="start" x="188" y="-244.3" font-family="Times,serif" font-size="14.00">show</text>
<text text-anchor="start" x="188" y="-229.3" font-family="Times,serif" font-size="14.00">update</text>
<polyline fill="none" stroke="black" points="180,-221.5 324,-221.5 "/>
<polyline fill="none" stroke="black" points="180,-197.5 324,-197.5 "/>
<text text-anchor="start" x="188" y="-182.3" font-family="Times,serif" font-size="14.00">_layout</text>
<text text-anchor="start" x="188" y="-167.3" font-family="Times,serif" font-size="14.00">presentation_params</text>
<text text-anchor="start" x="188" y="-152.3" font-family="Times,serif" font-size="14.00">set_presentation</text>
</g>
</g>
</svg>
