<?xml version="1.0" encoding="UTF-8" standalone="no"?>
<!DOCTYPE svg PUBLIC "-//W3C//DTD SVG 1.1//EN"
 "http://www.w3.org/Graphics/SVG/1.1/DTD/svg11.dtd">
<!-- Generated by graphviz version 2.36.0 (20140111.2315)
 -->
<!-- Title: models_diagram Pages: 1 -->
<svg width="425pt" height="230pt"
 viewBox="0.00 0.00 425.00 230.00" xmlns="http://www.w3.org/2000/svg" xmlns:xlink="http://www.w3.org/1999/xlink">
<g id="graph0" class="graph" transform="scale(1 1) rotate(0) translate(4 226)">
<title>models_diagram</title>
<polygon fill="none" stroke="none" points="-4,4 -4,-226 421,-226 421,4 -4,4"/>
<!-- _diagram_info -->
<g id="node1" class="node"><title>_diagram_info</title>
<text text-anchor="start" x="7" y="-207.6" font-family="Times,serif" font-size="13.00">Models diagram</text>
<text text-anchor="start" x="7" y="-193.6" font-family="Times,serif" font-size="13.00">Date: May 10 2016 &#45; 18:20</text>
<text text-anchor="start" x="7" y="-179.6" font-family="Times,serif" font-size="13.00">Migration version: 20160329082518</text>
<text text-anchor="start" x="7" y="-165.6" font-family="Times,serif" font-size="13.00">Generated by RailRoady 1.4.2</text>
<text text-anchor="start" x="7" y="-151.6" font-family="Times,serif" font-size="13.00">http://railroady.prestonlee.com</text>
</g>
<!-- Section -->
<g id="node2" class="node"><title>Section</title>
<ellipse fill="none" stroke="black" cx="305" cy="-18" rx="37.0701" ry="18"/>
<text text-anchor="middle" x="305" y="-14.3" font-family="Times,serif" font-size="14.00">Section</text>
</g>
<!-- Group -->
<g id="node3" class="node"><title>Group</title>
<ellipse fill="none" stroke="black" cx="336" cy="-183" rx="33.2209" ry="18"/>
<text text-anchor="middle" x="336" y="-179.3" font-family="Times,serif" font-size="14.00">Group</text>
</g>
<!-- Presentation -->
<g id="node4" class="node"><title>Presentation</title>
<ellipse fill="none" stroke="black" cx="196" cy="-18" rx="53.4184" ry="18"/>
<text text-anchor="middle" x="196" y="-14.3" font-family="Times,serif" font-size="14.00">Presentation</text>
</g>
<!-- Afile -->
<g id="node5" class="node"><title>Afile</title>
<ellipse fill="none" stroke="black" cx="389" cy="-18" rx="28.3955" ry="18"/>
<text text-anchor="middle" x="389" y="-14.3" font-family="Times,serif" font-size="14.00">Afile</text>
</g>
<!-- User -->
<g id="node6" class="node"><title>User</title>
<ellipse fill="none" stroke="black" cx="258" cy="-183" rx="26.949" ry="18"/>
<text text-anchor="middle" x="258" y="-179.3" font-family="Times,serif" font-size="14.00">User</text>
</g>
<!-- User&#45;&gt;Presentation -->
<g id="edge2" class="edge"><title>User&#45;&gt;Presentation</title>
<path fill="none" stroke="#18e48e" d="M248.868,-157.992C237.43,-127.92 217.898,-76.5699 206.047,-45.4129"/>
<ellipse fill="none" stroke="#18e48e" cx="250.292" cy="-161.735" rx="4.00001" ry="4.00001"/>
<polygon fill="#18e48e" stroke="#18e48e" points="206.044,-45.4058 206.695,-34.4592 204.266,-40.7325 202.489,-36.0591 202.489,-36.0591 202.489,-36.0591 204.266,-40.7325 198.283,-37.659 206.044,-45.4058 206.044,-45.4058"/>
</g>
<!-- Document -->
<g id="node7" class="node"><title>Document</title>
<ellipse fill="none" stroke="black" cx="296" cy="-90" rx="48.1437" ry="18"/>
<text text-anchor="middle" x="296" y="-86.3" font-family="Times,serif" font-size="14.00">Document</text>
</g>
<!-- User&#45;&gt;Document -->
<g id="edge1" class="edge"><title>User&#45;&gt;Document</title>
<path fill="none" stroke="#470f5e" d="M268.213,-157.543C273.387,-145.152 279.677,-130.09 284.962,-117.432"/>
<ellipse fill="none" stroke="#470f5e" cx="266.511" cy="-161.618" rx="4.00001" ry="4.00001"/>
<polygon fill="#470f5e" stroke="#470f5e" points="285.092,-117.121 293.098,-109.627 287.019,-112.507 288.946,-107.893 288.946,-107.893 288.946,-107.893 287.019,-112.507 284.793,-106.159 285.092,-117.121 285.092,-117.121"/>
</g>
<!-- Document&#45;&gt;Section -->
<g id="edge3" class="edge"><title>Document&#45;&gt;Section</title>
<path fill="none" stroke="#83206e" d="M299.261,-63.6398C299.996,-57.92 300.779,-51.8276 301.523,-46.0416"/>
<ellipse fill="none" stroke="#83206e" cx="298.735" cy="-67.7293" rx="4.00001" ry="4.00001"/>
<polygon fill="#83206e" stroke="#83206e" points="301.526,-46.0227 307.264,-36.6782 302.163,-41.0635 302.801,-36.1043 302.801,-36.1043 302.801,-36.1043 302.163,-41.0635 298.338,-35.5304 301.526,-46.0227 301.526,-46.0227"/>
</g>
<!-- Document&#45;&gt;Presentation -->
<g id="edge5" class="edge"><title>Document&#45;&gt;Presentation</title>
<path fill="none" stroke="#9c4036" d="M267.412,-68.9886C254.632,-60.0422 239.55,-49.4851 226.548,-40.3834"/>
<ellipse fill="none" stroke="#9c4036" cx="271.025" cy="-71.5172" rx="4.00002" ry="4.00002"/>
<polygon fill="#9c4036" stroke="#9c4036" points="226.541,-40.3787 220.929,-30.9575 222.445,-37.5113 218.349,-34.644 218.349,-34.644 218.349,-34.644 222.445,-37.5113 215.768,-38.3306 226.541,-40.3787 226.541,-40.3787"/>
</g>
<!-- Document&#45;&gt;Afile -->
<g id="edge4" class="edge"><title>Document&#45;&gt;Afile</title>
<path fill="none" stroke="#e2836d" d="M323.048,-68.6411C335.657,-59.151 350.592,-47.909 363.059,-38.5252"/>
<ellipse fill="none" stroke="#e2836d" cx="319.836" cy="-71.0592" rx="4.00002" ry="4.00002"/>
<polygon fill="#e2836d" stroke="#e2836d" points="363.247,-38.3837 373.943,-35.9653 367.242,-35.3768 371.237,-32.37 371.237,-32.37 371.237,-32.37 367.242,-35.3768 368.531,-28.7746 363.247,-38.3837 363.247,-38.3837"/>
</g>
</g>
</svg>
