<?xml version="1.0" encoding="UTF-8" standalone="no"?>
<!DOCTYPE svg PUBLIC "-//W3C//DTD SVG 1.1//EN"
 "http://www.w3.org/Graphics/SVG/1.1/DTD/svg11.dtd">
<!-- Generated by graphviz version 2.36.0 (20140111.2315)
 -->
<!-- Title: models_diagram Pages: 1 -->
<svg width="848pt" height="522pt"
 viewBox="0.00 0.00 848.00 522.00" xmlns="http://www.w3.org/2000/svg" xmlns:xlink="http://www.w3.org/1999/xlink">
<g id="graph0" class="graph" transform="scale(1 1) rotate(0) translate(4 518)">
<title>models_diagram</title>
<polygon fill="none" stroke="none" points="-4,4 -4,-518 844,-518 844,4 -4,4"/>
<!-- _diagram_info -->
<g id="node1" class="node"><title>_diagram_info</title>
<text text-anchor="start" x="7" y="-462.6" font-family="Times,serif" font-size="13.00">Models diagram</text>
<text text-anchor="start" x="7" y="-448.6" font-family="Times,serif" font-size="13.00">Date: May 10 2016 &#45; 18:20</text>
<text text-anchor="start" x="7" y="-434.6" font-family="Times,serif" font-size="13.00">Migration version: 20160329082518</text>
<text text-anchor="start" x="7" y="-420.6" font-family="Times,serif" font-size="13.00">Generated by RailRoady 1.4.2</text>
<text text-anchor="start" x="7" y="-406.6" font-family="Times,serif" font-size="13.00">http://railroady.prestonlee.com</text>
</g>
<!-- Section -->
<g id="node2" class="node"><title>Section</title>
<path fill="none" stroke="black" d="M346,-23.5C346,-23.5 566,-23.5 566,-23.5 572,-23.5 578,-29.5 578,-35.5 578,-35.5 578,-132.5 578,-132.5 578,-138.5 572,-144.5 566,-144.5 566,-144.5 346,-144.5 346,-144.5 340,-144.5 334,-138.5 334,-132.5 334,-132.5 334,-35.5 334,-35.5 334,-29.5 340,-23.5 346,-23.5"/>
<text text-anchor="middle" x="456" y="-129.3" font-family="Times,serif" font-size="14.00">Section</text>
<polyline fill="none" stroke="black" points="334,-121.5 578,-121.5 "/>
<text text-anchor="start" x="342" y="-106.3" font-family="Times,serif" font-size="14.00">id :integer</text>
<text text-anchor="start" x="342" y="-91.3" font-family="Times,serif" font-size="14.00">document_id :integer</text>
<text text-anchor="start" x="342" y="-76.3" font-family="Times,serif" font-size="14.00">source :text</text>
<text text-anchor="start" x="342" y="-61.3" font-family="Times,serif" font-size="14.00">position :integer</text>
<text text-anchor="start" x="342" y="-46.3" font-family="Times,serif" font-size="14.00">created_at :timestamp without time zone</text>
<text text-anchor="start" x="342" y="-31.3" font-family="Times,serif" font-size="14.00">updated_at :timestamp without time zone</text>
</g>
<!-- Group -->
<g id="node3" class="node"><title>Group</title>
<path fill="none" stroke="black" d="M505,-392.5C505,-392.5 725,-392.5 725,-392.5 731,-392.5 737,-398.5 737,-404.5 737,-404.5 737,-471.5 737,-471.5 737,-477.5 731,-483.5 725,-483.5 725,-483.5 505,-483.5 505,-483.5 499,-483.5 493,-477.5 493,-471.5 493,-471.5 493,-404.5 493,-404.5 493,-398.5 499,-392.5 505,-392.5"/>
<text text-anchor="middle" x="615" y="-468.3" font-family="Times,serif" font-size="14.00">Group</text>
<polyline fill="none" stroke="black" points="493,-460.5 737,-460.5 "/>
<text text-anchor="start" x="501" y="-445.3" font-family="Times,serif" font-size="14.00">id :integer</text>
<text text-anchor="start" x="501" y="-430.3" font-family="Times,serif" font-size="14.00">name :character varying</text>
<text text-anchor="start" x="501" y="-415.3" font-family="Times,serif" font-size="14.00">created_at :timestamp without time zone</text>
<text text-anchor="start" x="501" y="-400.3" font-family="Times,serif" font-size="14.00">updated_at :timestamp without time zone</text>
</g>
<!-- Presentation -->
<g id="node4" class="node"><title>Presentation</title>
<path fill="none" stroke="black" d="M84,-1C84,-1 304,-1 304,-1 310,-1 316,-7 316,-13 316,-13 316,-155 316,-155 316,-161 310,-167 304,-167 304,-167 84,-167 84,-167 78,-167 72,-161 72,-155 72,-155 72,-13 72,-13 72,-7 78,-1 84,-1"/>
<text text-anchor="middle" x="194" y="-151.8" font-family="Times,serif" font-size="14.00">Presentation</text>
<polyline fill="none" stroke="black" points="72,-144 316,-144 "/>
<text text-anchor="start" x="80" y="-128.8" font-family="Times,serif" font-size="14.00">id :integer</text>
<text text-anchor="start" x="80" y="-113.8" font-family="Times,serif" font-size="14.00">document_id :integer</text>
<text text-anchor="start" x="80" y="-98.8" font-family="Times,serif" font-size="14.00">user_id :integer</text>
<text text-anchor="start" x="80" y="-83.8" font-family="Times,serif" font-size="14.00">comment :character varying</text>
<text text-anchor="start" x="80" y="-68.8" font-family="Times,serif" font-size="14.00">groups :character varying</text>
<text text-anchor="start" x="80" y="-53.8" font-family="Times,serif" font-size="14.00">last_open_slide :integer</text>
<text text-anchor="start" x="80" y="-38.8" font-family="Times,serif" font-size="14.00">auto_open :boolean</text>
<text text-anchor="start" x="80" y="-23.8" font-family="Times,serif" font-size="14.00">created_at :timestamp without time zone</text>
<text text-anchor="start" x="80" y="-8.8" font-family="Times,serif" font-size="14.00">updated_at :timestamp without time zone</text>
</g>
<!-- Afile -->
<g id="node5" class="node"><title>Afile</title>
<path fill="none" stroke="black" d="M608,-23.5C608,-23.5 828,-23.5 828,-23.5 834,-23.5 840,-29.5 840,-35.5 840,-35.5 840,-132.5 840,-132.5 840,-138.5 834,-144.5 828,-144.5 828,-144.5 608,-144.5 608,-144.5 602,-144.5 596,-138.5 596,-132.5 596,-132.5 596,-35.5 596,-35.5 596,-29.5 602,-23.5 608,-23.5"/>
<text text-anchor="middle" x="718" y="-129.3" font-family="Times,serif" font-size="14.00">Afile</text>
<polyline fill="none" stroke="black" points="596,-121.5 840,-121.5 "/>
<text text-anchor="start" x="604" y="-106.3" font-family="Times,serif" font-size="14.00">id :integer</text>
<text text-anchor="start" x="604" y="-91.3" font-family="Times,serif" font-size="14.00">document_id :integer</text>
<text text-anchor="start" x="604" y="-76.3" font-family="Times,serif" font-size="14.00">source :bytea</text>
<text text-anchor="start" x="604" y="-61.3" font-family="Times,serif" font-size="14.00">path :character varying</text>
<text text-anchor="start" x="604" y="-46.3" font-family="Times,serif" font-size="14.00">created_at :timestamp without time zone</text>
<text text-anchor="start" x="604" y="-31.3" font-family="Times,serif" font-size="14.00">updated_at :timestamp without time zone</text>
</g>
<!-- User -->
<g id="node6" class="node"><title>User</title>
<path fill="none" stroke="black" d="M243,-362.5C243,-362.5 463,-362.5 463,-362.5 469,-362.5 475,-368.5 475,-374.5 475,-374.5 475,-501.5 475,-501.5 475,-507.5 469,-513.5 463,-513.5 463,-513.5 243,-513.5 243,-513.5 237,-513.5 231,-507.5 231,-501.5 231,-501.5 231,-374.5 231,-374.5 231,-368.5 237,-362.5 243,-362.5"/>
<text text-anchor="middle" x="353" y="-498.3" font-family="Times,serif" font-size="14.00">User</text>
<polyline fill="none" stroke="black" points="231,-490.5 475,-490.5 "/>
<text text-anchor="start" x="239" y="-475.3" font-family="Times,serif" font-size="14.00">id :integer</text>
<text text-anchor="start" x="239" y="-460.3" font-family="Times,serif" font-size="14.00">login :character varying</text>
<text text-anchor="start" x="239" y="-445.3" font-family="Times,serif" font-size="14.00">full_name :character varying</text>
<text text-anchor="start" x="239" y="-430.3" font-family="Times,serif" font-size="14.00">password_digest :character varying</text>
<text text-anchor="start" x="239" y="-415.3" font-family="Times,serif" font-size="14.00">role :integer</text>
<text text-anchor="start" x="239" y="-400.3" font-family="Times,serif" font-size="14.00">groups :character varying</text>
<text text-anchor="start" x="239" y="-385.3" font-family="Times,serif" font-size="14.00">created_at :timestamp without time zone</text>
<text text-anchor="start" x="239" y="-370.3" font-family="Times,serif" font-size="14.00">updated_at :timestamp without time zone</text>
</g>
<!-- User&#45;&gt;Presentation -->
<g id="edge2" class="edge"><title>User&#45;&gt;Presentation</title>
<path fill="none" stroke="#970bba" d="M310.888,-354.974C306.114,-345.252 301.391,-335.434 297,-326 274.237,-277.088 250.466,-221.787 231.502,-176.507"/>
<ellipse fill="none" stroke="#970bba" cx="312.774" cy="-358.795" rx="4.00002" ry="4.00002"/>
<polygon fill="#970bba" stroke="#970bba" points="231.386,-176.229 231.683,-165.267 229.458,-171.616 227.53,-167.002 227.53,-167.002 227.53,-167.002 229.458,-171.616 223.378,-168.737 231.386,-176.229 231.386,-176.229"/>
</g>
<!-- Document -->
<g id="node7" class="node"><title>Document</title>
<path fill="none" stroke="black" d="M318,-204.5C318,-204.5 538,-204.5 538,-204.5 544,-204.5 550,-210.5 550,-216.5 550,-216.5 550,-313.5 550,-313.5 550,-319.5 544,-325.5 538,-325.5 538,-325.5 318,-325.5 318,-325.5 312,-325.5 306,-319.5 306,-313.5 306,-313.5 306,-216.5 306,-216.5 306,-210.5 312,-204.5 318,-204.5"/>
<text text-anchor="middle" x="428" y="-310.3" font-family="Times,serif" font-size="14.00">Document</text>
<polyline fill="none" stroke="black" points="306,-302.5 550,-302.5 "/>
<text text-anchor="start" x="314" y="-287.3" font-family="Times,serif" font-size="14.00">id :integer</text>
<text text-anchor="start" x="314" y="-272.3" font-family="Times,serif" font-size="14.00">user_id :integer</text>
<text text-anchor="start" x="314" y="-257.3" font-family="Times,serif" font-size="14.00">comment :character varying</text>
<text text-anchor="start" x="314" y="-242.3" font-family="Times,serif" font-size="14.00">material_id :integer</text>
<text text-anchor="start" x="314" y="-227.3" font-family="Times,serif" font-size="14.00">created_at :timestamp without time zone</text>
<text text-anchor="start" x="314" y="-212.3" font-family="Times,serif" font-size="14.00">updated_at :timestamp without time zone</text>
</g>
<!-- User&#45;&gt;Document -->
<g id="edge1" class="edge"><title>User&#45;&gt;Document</title>
<path fill="none" stroke="#f825ae" d="M388.986,-354.951C391.901,-348.305 394.828,-341.631 397.697,-335.091"/>
<ellipse fill="none" stroke="#f825ae" cx="387.285" cy="-358.831" rx="4.00002" ry="4.00002"/>
<polygon fill="#f825ae" stroke="#f825ae" points="397.833,-334.78 405.971,-327.429 399.842,-330.201 401.85,-325.622 401.85,-325.622 401.85,-325.622 399.842,-330.201 397.729,-323.814 397.833,-334.78 397.833,-334.78"/>
</g>
<!-- Document&#45;&gt;Section -->
<g id="edge3" class="edge"><title>Document&#45;&gt;Section</title>
<path fill="none" stroke="#e0698a" d="M438.61,-196.175C440.722,-182.667 442.945,-168.459 445.068,-154.884"/>
<ellipse fill="none" stroke="#e0698a" cx="437.942" cy="-200.444" rx="4.00001" ry="4.00001"/>
<polygon fill="#e0698a" stroke="#e0698a" points="445.124,-154.529 451.115,-145.345 445.897,-149.589 446.669,-144.649 446.669,-144.649 446.669,-144.649 445.897,-149.589 442.223,-143.954 445.124,-154.529 445.124,-154.529"/>
</g>
<!-- Document&#45;&gt;Presentation -->
<g id="edge5" class="edge"><title>Document&#45;&gt;Presentation</title>
<path fill="none" stroke="#adc558" d="M343.461,-199.331C332.519,-190.961 321.166,-182.277 309.828,-173.603"/>
<ellipse fill="none" stroke="#adc558" cx="346.904" cy="-201.965" rx="4.00002" ry="4.00002"/>
<polygon fill="#adc558" stroke="#adc558" points="309.523,-173.37 304.314,-163.72 305.551,-170.332 301.58,-167.294 301.58,-167.294 301.58,-167.294 305.551,-170.332 298.846,-170.868 309.523,-173.37 309.523,-173.37"/>
</g>
<!-- Document&#45;&gt;Afile -->
<g id="edge4" class="edge"><title>Document&#45;&gt;Afile</title>
<path fill="none" stroke="#68da48" d="M534.421,-200.179C552.023,-189.499 570.054,-178.483 587,-168 596.386,-162.194 606.125,-156.119 615.863,-150.011"/>
<ellipse fill="none" stroke="#68da48" cx="530.857" cy="-202.339" rx="4.00002" ry="4.00002"/>
<polygon fill="#68da48" stroke="#68da48" points="615.945,-149.96 626.806,-148.45 620.178,-147.3 624.412,-144.64 624.412,-144.64 624.412,-144.64 620.178,-147.3 622.018,-140.829 615.945,-149.96 615.945,-149.96"/>
</g>
</g>
</svg>
